<svg width="19" height="19" viewBox="0 0 19 19" fill="none" xmlns="http://www.w3.org/2000/svg">
  <path fill-rule="evenodd" clip-rule="evenodd"
    d="M9.5 0C14.7469 0 19 4.36043 19 9.74027C19 14.0428 16.2811 17.6927 12.5086 18.9819C12.027 19.0778 11.856 18.7737 11.856 18.5143C11.856 18.1932 11.8674 17.1444 11.8674 15.841C11.8674 14.9328 11.5634 14.3401 11.2224 14.038C13.338 13.7967 15.561 12.973 15.561 9.23187C15.561 8.16788 15.1924 7.29962 14.5825 6.61752C14.6813 6.37147 15.0071 5.38075 14.4894 4.03935C14.4894 4.03935 13.6933 3.77836 11.8797 5.03806C11.1207 4.82241 10.3075 4.7139 9.5 4.7101C8.6925 4.7139 7.88025 4.82241 7.12215 5.03806C5.3067 3.77836 4.5087 4.03935 4.5087 4.03935C3.99285 5.38075 4.3187 6.37147 4.41655 6.61752C3.8095 7.29962 3.43805 8.16788 3.43805 9.23187C3.43805 12.9635 5.6563 13.7998 7.76625 14.0459C7.49455 14.2891 7.2485 14.7181 7.163 15.348C6.6215 15.5969 5.2459 16.0276 4.3985 14.539C4.3985 14.539 3.89595 13.6031 2.94215 13.5347C2.94215 13.5347 2.0159 13.5224 2.87755 14.1266C2.87755 14.1266 3.4998 14.4258 3.93205 15.5516C3.93205 15.5516 4.4897 17.2901 7.1326 16.7011C7.13735 17.5152 7.1459 18.2825 7.1459 18.5143C7.1459 18.7718 6.9711 19.0731 6.49705 18.9828C2.72175 17.6956 0 14.0438 0 9.74027C0 4.36043 4.2541 0 9.5 0Z"
    fill="#36364C" />
</svg>
  