<svg width="19" height="19" viewBox="0 0 19 19" fill="none" xmlns="http://www.w3.org/2000/svg">
  <path
    d="M17.5943 0H1.40194C1.39687 0 1.39117 0 1.38484 0C0.625267 0 0.00886903 0.610696 0 1.36773V17.631C0.00886903 18.3887 0.625267 19 1.38484 19C1.39117 19 1.39687 19 1.40321 19H17.5924C17.5974 19 17.6038 19 17.6101 19C18.3703 19 18.988 18.3899 19 17.6323V17.631V1.369C18.988 0.610696 18.3703 0 17.6095 0C17.6031 0 17.5974 0 17.5911 0H17.5943ZM5.635 16.1911H2.81338V7.125H5.635V16.1911ZM4.22483 5.8846C3.32209 5.8846 2.59102 5.15291 2.59102 4.2508C2.59102 3.34869 3.32272 2.617 4.22483 2.617C5.12693 2.617 5.85863 3.34806 5.85863 4.25017C5.85863 4.2508 5.85863 4.25143 5.85863 4.2527C5.85863 5.15417 5.12757 5.88524 4.22609 5.88524C4.22546 5.88524 4.22483 5.88524 4.22419 5.88524L4.22483 5.8846ZM16.1866 16.1911H13.3732V11.7825C13.3732 10.7309 13.3517 9.37837 11.9073 9.37837C10.4401 9.37837 10.2165 10.5225 10.2165 11.7052V16.1917H7.40311V7.12563H10.1056V8.3616H10.1424C10.6669 7.47786 11.6159 6.89504 12.7011 6.89504C12.7397 6.89504 12.7777 6.89567 12.8158 6.89694H12.81C15.6608 6.89694 16.1879 8.77337 16.1879 11.2155V16.1917L16.1866 16.1911Z"
    fill="#36364C" />
</svg>
  